# xmcd CD database file
#
# Track frame offsets:
#	150
#	15987
#	38750
#	52337
#	65475
#	81862
#	106762
#	118575
#	131637
#	148925
#	159650
#	182575
#	200647
#	218840
#
# Disc length: 3310 seconds
#
# Revision: 0
# Processed by: cddbd v1.5.2PL0 Copyright (c) Steve Scherf et al.
# Submitted via: CDex 1.51
#
DISCID=ca0cec0e
DTITLE=Hound Dog Taylor - Beware of the Dog
DYEAR=1996
DGENRE=Blues
TTITLE0=Ain앖 got  nobody
TTITLE1=Gonna send you back to Georgia
TTITLE2=Fender bender
TTITLE3=My baby압 coming home
TTITLE4=Blue guitar
TTITLE5=The sun is shining
TTITLE6=Phillips goes bananas
TTITLE7=What앇 i say
TTITLE8=Kansas City
TTITLE9=Crossroads
TTITLE10=Let압 get funky
TTITLE11=Rock me
TTITLE12=It압 allright
TTITLE13=Freddie압 blues
EXTD=YEAR: 1996
EXTT0=
EXTT1=
EXTT2=
EXTT3=
EXTT4=
EXTT5=
EXTT6=
EXTT7=
EXTT8=
EXTT9=
EXTT10=
EXTT11=
EXTT12=
EXTT13=
PLAYORDER=
